PathFileType	4	(X/Y/Z)	Patient4_TMGait_0pt4_01_left_26.trc.trc
DataRate	CameraRate	NumFrames	NumMarkers	Units	OrigDataRate	OrigDataStartFrame	OrigNumFrames
76.502732240437	76.502732240437	5	33	mm	76.502732240437	124	       141
Frame#	Time	Sacral			L.Shoulder			Chest			R.Shoulder			Neck			R.ASIS			L.ASIS			R.Thigh.Superior			R.Thigh.Lateral			R.Thigh.Inferior			R.Patella			L.Thigh.Superior			L.Thigh.Lateral			L.Thigh.Inferior			L.Patella			L.Shank.Superior			L.Shank.Lateral			L.Shank.Inferior			R.Shank.Superior			R.Shank.Lateral			R.Shank.Inferior			R.Heel			R.Midfoot.Superior			R.Midfoot.Lateral			R.Toe			L.Heel			L.Midfoot.Lateral			L.Midfoot.Superior			L.Toe			L.Elbow			L.Wrist			R.Elbow			R.Wrist			
		X1	Y1	Z1	X2	Y2	Z2	X3	Y3	Z3	X4	Y4	Z4	X5	Y5	Z5	X6	Y6	Z6	X7	Y7	Z7	X8	Y8	Z8	X9	Y9	Z9	X10	Y10	Z10	X11	Y11	Z11	X12	Y12	Z12	X13	Y13	Z13	X14	Y14	Z14	X15	Y15	Z15	X16	Y16	Z16	X17	Y17	Z17	X18	Y18	Z18	X19	Y19	Z19	X20	Y20	Z20	X21	Y21	Z21	X22	Y22	Z22	X23	Y23	Z23	X24	Y24	Z24	X25	Y25	Z25	X26	Y26	Z26	X27	Y27	Z27	X28	Y28	Z28	X29	Y29	Z29	X30	Y30	Z30	X31	Y31	Z31	X32	Y32	Z32	X33	Y33	Z33	

124	33.107785714286	872.217760183032	999.624886724125	519.093503021025	1004.702418445748	1427.062336208078	309.630602874178	1139.420620209439	1361.293991973160	445.996851196522	1092.923478548184	1437.156079754232	631.926958931998	1024.706079388596	1489.740337336590	464.097882477618	1114.773143029811	934.228352334621	601.435959198829	1062.057219106666	956.929208715332	330.913035649531	1108.074675686436	721.771645005917	574.950435096816	1008.016445424050	628.361472044498	646.338429454221	1060.432266897625	562.569225066010	561.839342873782	1040.638268326972	479.355257834102	567.774632308634	1138.707129166553	767.288977421210	357.261314582925	1078.827855751699	637.021194198853	288.188717714945	1184.798128416178	577.910328113638	343.132437521826	1206.460967549242	510.680206221110	341.927771816436	1186.821520517915	437.488945785707	333.483206375841	1110.240769738005	311.518811249391	287.851347723806	1193.065820293391	207.628454387189	340.343754395929	1002.551369792930	395.158534328480	578.177049668489	924.277672759855	301.122880404986	647.656056581371	947.743862696107	202.033392399518	580.664332812102	796.170155215537	43.987082384584	558.393210364326	969.149754147701	96.183716752690	588.151106341141	881.677859209449	36.765857337932	630.311352593655	1089.709437492498	41.595758208003	612.025338727797	1097.574288037590	41.254209604582	385.779443889715	1167.113682297636	38.077796968353	301.956459014151	1248.157752204067	104.474108430554	320.385161539285	1375.919360685795	59.138956243759	287.014814452965	873.406409956567	1094.105577212656	230.975262305750	854.425119888701	834.928821971087	225.339313619232	1241.661504666052	1129.698057524470	741.173969343133	1463.574474207631	1181.853864088793	635.048885506665	
125	33.120857142857	873.367411484682	998.579381368248	516.081302713571	1005.306994124879	1425.958981432019	306.406335429670	1139.773736339695	1360.816250188776	443.299427858856	1092.398126100018	1436.645022382434	629.057726858397	1024.723731007403	1488.948309391238	460.881198234247	1115.928410993109	933.467228692170	599.260114102116	1063.862131345798	955.853438531178	328.693230461366	1109.038498667506	720.754997370403	573.097511732957	1008.420026243019	627.614293858570	644.286632201491	1060.806810649730	561.443476472808	559.989010389248	1040.521814247704	477.699618100045	565.891542481055	1140.187152403020	765.406353220552	355.306813057231	1078.504079814646	635.374104299142	287.572530584063	1184.458490032498	576.107758993023	342.490917888374	1204.656518444547	508.169406505713	342.136160035022	1184.672069581379	434.832924335071	333.586444621606	1106.776194931147	309.436195982290	288.507250123476	1188.371947801265	205.016970535149	341.627976135765	1001.362310724985	393.923311197288	576.612708134815	921.929718588494	301.100201033668	646.541462341159	944.015241853462	201.491521034175	580.029686570463	790.891016331981	44.324664941247	558.566410641672	964.004690060884	96.199519898922	588.122667953150	876.465359281478	36.815485545980	630.376940003731	1084.525552535000	41.328910435527	612.110341490631	1090.850282571075	40.007964395607	387.570506222409	1159.847819741747	36.952430059165	303.156594488853	1241.769457457021	101.999442116054	322.059302014514	1369.069093836874	55.425450976864	287.388848664284	875.519645616680	1092.480187095500	227.186059474859	858.118773619498	833.141165835133	221.180402893714	1240.357057281361	1128.265468947150	737.964783064052	1462.819482006848	1177.783055935697	631.353431655708	
126	33.133928571429	874.418707292958	997.720556714903	512.967695166433	1005.983221697321	1424.998912177496	303.064849622126	1140.174960137031	1360.469089526135	440.502938197853	1091.960070109800	1436.327351219770	626.078859730697	1024.819763150674	1488.339682012769	457.527003983374	1116.987537169550	932.848658923814	596.936040231985	1065.595189754069	955.083743732707	326.328580757979	1110.176393610899	719.883696351234	571.029928137512	1009.207089132961	626.860698278394	642.014996312733	1061.710775585875	560.385542106452	557.919387927443	1041.101568777785	475.896856146264	563.900991660064	1141.820115407572	764.055659241345	353.451046672398	1078.796170879207	634.339168834764	286.694682163999	1184.519910441617	574.837296888733	341.837701243501	1203.281839852435	506.201210419982	342.261934415664	1183.005121324961	432.688272145507	333.530917436194	1104.029820144199	307.914316115620	288.482009927986	1184.083816390184	202.923223938434	342.579938521887	1000.680248096630	392.630599064128	574.932423252595	919.912320108901	301.185719129879	645.320389232921	940.502612160114	201.016102301467	579.373817560627	785.624547379804	44.950962697934	558.765389936270	958.968208060054	96.232530050264	588.097767960433	871.282881229802	36.974313262424	630.447417102897	1079.371152471337	41.019412729668	612.190714080697	1084.386926350086	39.081774865918	388.700782329093	1153.070067782646	36.209652305142	303.901063645319	1235.660323715724	100.149411763214	323.412140550949	1362.642839129739	52.604954653905	287.833548763073	878.241980920998	1090.742574003739	223.194541940736	862.839805130687	831.217069828678	216.717034414767	1238.415408092910	1126.705101447856	734.974983529898	1461.708615417981	1172.447378507089	627.924999880194	
127	33.147000000000	875.361011858561	997.092677089277	509.778582438001	1006.711010633824	1424.239642167335	299.653648152192	1140.617859028597	1360.277200021696	437.627585920224	1091.642271239838	1436.241656997543	623.007157514259	1024.997520730672	1487.951512253414	454.077939698663	1117.905708729364	932.428321064328	594.466333706838	1067.204629123890	954.656055471709	323.801962492216	1111.464666633822	719.221004093645	568.742167035966	1010.418512084907	626.137992463500	639.551155481484	1063.218825668897	559.443170557563	555.662630248687	1042.499542932541	473.970729987461	561.894954918748	1143.560078806093	763.295728096286	351.648073051145	1079.650788911052	633.909578914955	285.513481848989	1184.913433636730	574.079322977310	341.070440587649	1202.305444016145	504.783504726515	342.188910275482	1181.785196381729	431.064905151482	333.258023918455	1101.955897772662	306.938176017271	287.795581643225	1180.221414135518	201.362635837945	343.169813868779	1000.585485893263	391.322037081295	573.200922164033	918.277079601235	301.451189362209	644.023031762538	937.271682563845	200.674230543430	578.733421425360	780.404057274627	45.995543738098	558.985654435943	954.096435876282	96.296734779142	588.088605676123	866.149840108937	37.310393406337	630.521213513214	1074.248188365826	40.669029471116	612.260226225584	1078.295016100219	38.473556437305	389.255333557568	1146.849343240916	35.792291434001	304.243850345136	1229.905606144008	98.902499011837	324.394372546559	1356.700079843102	50.654505549707	288.265584259633	881.561245601467	1088.970485827345	219.028401001358	868.585122460392	829.247961251644	211.989840055167	1235.840251999189	1125.077053868293	732.209290176262	1460.189530606035	1165.854516127863	624.786694503028	
128	33.160071428571	876.195933420294	996.712909731423	506.521263774046	1007.467648545434	1423.720015441428	296.212903426803	1141.087830655079	1360.256278531484	434.696789510217	1091.443411913011	1436.404905369764	619.862342871248	1025.244561071562	1487.799505875260	450.575619835776	1118.653430993984	932.245895261805	591.861619795470	1068.668077032817	954.570655705532	321.103578038930	1112.900083564833	718.819407242067	566.250603653828	1012.101780921946	625.479990293719	636.937909091838	1065.413974826708	558.658243642943	553.269789453014	1044.836540079456	471.954466632041	559.978785419924	1145.342668834109	763.098741454001	349.824467872228	1080.921032528509	634.000413536790	284.014250780201	1185.505638634592	573.740619394286	340.090793618983	1201.623453962540	503.849248686014	341.826524165358	1180.895901728181	429.904885243909	332.734429211745	1100.393611401550	306.427567853357	286.553375864504	1176.716363478066	200.284620582752	343.412564914888	1001.167662657077	390.043790842330	571.492301372210	917.089012594463	301.973919163482	642.682295590817	934.402515864206	200.540669300843	578.145617637515	775.280496805735	47.605489028573	559.217902316806	949.454064589929	96.414466420167	588.107102057815	861.093515990811	37.911192246035	630.594712988034	1069.155593225348	40.284814535366	612.311432100110	1072.589971067763	38.143985096853	389.358779968812	1141.149385176414	35.620761493722	304.267115168550	1224.495187500110	98.175822805107	325.009752728038	1351.206045197577	49.463076300316	288.624853958126	885.450396018444	1087.234998838281	214.707464739477	875.357103898352	827.321911751303	207.040375679079	1232.632591707198	1123.438509964311	729.662441363789	1458.184106842373	1158.017872957629	621.965288428689	
